<?xml version="1.0" encoding="utf-8"?>
<svg version="1.1" xmlns:xlink="http://www.w3.org/1999/xlink" width="15px" height="15px" xmlns="http://www.w3.org/2000/svg">
  <g transform="matrix(1 0 0 1 -192 -816 )">
    <path d="M 15 1.78571428571429  C 15 0.8  14.2 0  13.2142857142857 0  L 1.78571428571429 0  C 0.8 0  0 0.8  0 1.78571428571429  L 0 13.2142857142857  C 0 14.2  0.8 15  1.78571428571429 15  L 13.2142857142857 15  C 14.2 15  15 14.2  15 13.2142857142857  L 15 1.78571428571429  Z M 2.5 5.71428571428571  L 4.64285714285714 5.71428571428571  L 4.64285714285714 12.5  L 2.5 12.5  L 2.5 5.71428571428571  Z M 3.57142857142857 4.64285714285714  C 2.92857142857143 4.64285714285714  2.5 4.23928571428571  2.5 3.73928571428571  C 2.5 3.23928571428571  2.92857142857143 2.85714285714286  3.57142857142857 2.85714285714286  C 4.21428571428571 2.85714285714286  4.61785714285714 3.23928571428571  4.64285714285714 3.73928571428571  C 4.64285714285714 4.23928571428571  4.24285714285714 4.64285714285714  3.57142857142857 4.64285714285714  Z M 12.5 8.66428571428571  L 12.5 12.5  L 10.3571428571429 12.5  C 10.3571428571429 12.5  10.3571428571429 9.19285714285714  10.3571428571429 8.92857142857143  C 10.3571428571429 8.21428571428572  10 7.5  9.10714285714286 7.48571428571429  L 9.07857142857143 7.48571428571429  C 8.21428571428572 7.48571428571429  7.85714285714286 8.22142857142857  7.85714285714286 8.92857142857143  C 7.85714285714286 9.25357142857143  7.85714285714286 12.5  7.85714285714286 12.5  L 5.71428571428571 12.5  L 5.71428571428571 5.71428571428571  L 7.85714285714286 5.71428571428571  L 7.85714285714286 6.62857142857143  C 7.85714285714286 6.62857142857143  8.54642857142857 5.71428571428571  9.93214285714286 5.71428571428571  C 11.35 5.71428571428571  12.5 6.68928571428571  12.5 8.66428571428571  Z " fill-rule="nonzero" fill="#000000" stroke="none" transform="matrix(1 0 0 1 192 816 )" />
  </g>
</svg>