<?xml version="1.0" encoding="utf-8"?>
<svg version="1.1" xmlns:xlink="http://www.w3.org/1999/xlink" width="32px" height="32px" xmlns="http://www.w3.org/2000/svg">
  <g transform="matrix(1 0 0 1 -185 -675 )">
    <path d="M 201 676  C 209.4 676  216 682.6  216 691  C 216 699.4  209.4 706  201 706  C 192.6 706  186 699.4  186 691  C 186 682.6  192.6 676  201 676  Z " fill-rule="nonzero" fill="#ffffff" stroke="none" fill-opacity="0" />
    <path d="M 201 676  C 209.4 676  216 682.6  216 691  C 216 699.4  209.4 706  201 706  C 192.6 706  186 699.4  186 691  C 186 682.6  192.6 676  201 676  Z " stroke-width="2" stroke="#aaaaaa" fill="none" />
  </g>
</svg>