<?xml version="1.0" encoding="utf-8"?>
<svg version="1.1" xmlns:xlink="http://www.w3.org/1999/xlink" width="192px" height="60px" xmlns="http://www.w3.org/2000/svg">
  <defs>
    <mask fill="white" id="clip21">
      <path d="M 0 30.3861386138614  C 0 28.8787484666226  8.95462735837602 22.0305046979682  12 19.7448889978261  L 12 5  C 12 2.20000000000005  14.2 0  17 0  L 187 0  C 189.8 0  192 2.20000000000005  192 5  L 192 55  C 192 57.8  189.8 60  187 60  L 17 60  C 14.2 60  12 57.8  12 55  L 12 41.2468006272484  C 8.95437375283023 39.1720710948474  0 31.8935074154208  0 30.3861386138614  Z " fill-rule="evenodd" />
    </mask>
  </defs>
  <g transform="matrix(1 0 0 1 -222 -661 )">
    <path d="M 0 30.3861386138614  C 0 28.8787484666226  8.95462735837602 22.0305046979682  12 19.7448889978261  L 12 5  C 12 2.20000000000005  14.2 0  17 0  L 187 0  C 189.8 0  192 2.20000000000005  192 5  L 192 55  C 192 57.8  189.8 60  187 60  L 17 60  C 14.2 60  12 57.8  12 55  L 12 41.2468006272484  C 8.95437375283023 39.1720710948474  0 31.8935074154208  0 30.3861386138614  Z " fill-rule="nonzero" fill="#ffffff" stroke="none" transform="matrix(1 0 0 1 222 661 )" />
    <path d="M 0 30.3861386138614  C 0 28.8787484666226  8.95462735837602 22.0305046979682  12 19.7448889978261  L 12 5  C 12 2.20000000000005  14.2 0  17 0  L 187 0  C 189.8 0  192 2.20000000000005  192 5  L 192 55  C 192 57.8  189.8 60  187 60  L 17 60  C 14.2 60  12 57.8  12 55  L 12 41.2468006272484  C 8.95437375283023 39.1720710948474  0 31.8935074154208  0 30.3861386138614  Z " stroke-width="2" stroke="#000000" fill="none" transform="matrix(1 0 0 1 222 661 )" mask="url(#clip21)" />
  </g>
</svg>