<?xml version="1.0" encoding="utf-8"?>
<svg version="1.1" xmlns:xlink="http://www.w3.org/1999/xlink" width="18px" height="18px" xmlns="http://www.w3.org/2000/svg">
  <g transform="matrix(1 0 0 1 -191 -771 )">
    <path d="M 18 9  C 18 4.02975  13.97025 0  9 0  C 4.02975 0  0 4.02975  0 9  C 0 10.688406  0.474256125 12.262551  1.283203125 13.61279325  L 0.0805664249999999 18  L 4.5615234 16.82373075  C 5.8720155 17.5687965  7.3848675 18  9 18  C 13.97025 18  18 13.97025  18 9  Z M 5.323242 5.080078125  C 5.528742 4.856578125  5.7694335 4.80175785  5.9194335 4.80175785  C 6.0656835 4.80175785  6.21595275 4.80086715  6.3457035 4.80761715  C 6.5062035 4.811367225  6.68089425 4.823121075  6.84814425 5.192871075  C 7.04689425 5.632371  7.47965625 6.7349295  7.53515625 6.8466795  C 7.59065625 6.9584295  7.62998475 7.09007775  7.552734 7.2363285  C 7.479234 7.38632775  7.441008 7.477113  7.333008 7.609863  C 7.221258 7.738863  7.0988085 7.89908175  6.9975585 7.99658175  C 6.8858085 8.10833175  6.77041425 8.230863  6.89941425 8.453613  C 7.02841425 8.676363  7.47642225 9.40659375  8.1386715 9.99609375  C 8.9899215 10.75659375  9.708141 10.9903005  9.931641 11.1020505  C 10.15514025 11.2138005  10.2845745 11.196387  10.4135745 11.046387  C 10.5463245 10.900137  10.97109375 10.3983045  11.12109375 10.1748045  C 11.26734375 9.9513045  11.416641 9.98997675  11.619141 10.06347675  C 11.824641 10.13697675  12.92054325 10.6768245  13.14404325 10.7885745  C 13.36754325 10.9003245  13.5140625 10.955637  13.5703125 11.046387  C 13.6280625 11.140137  13.628121 11.5864335  13.442871 12.1069335  C 13.257621 12.6266835  12.3479415 13.1293005  11.9399415 13.1645505  C 11.5281915 13.2028005  11.1439215 13.349625  9.2636715 12.609375  C 6.99567225 11.716125  5.565363 9.39316425  5.453613 9.24316425  C 5.341863 9.09691425  4.545410175 8.0354295  4.545410175 6.9404295  C 4.545410175 5.8416795  5.121492225 5.30357775  5.323242 5.080078125  Z " fill-rule="nonzero" fill="#000000" stroke="none" transform="matrix(1 0 0 1 191 771 )" />
  </g>
</svg>