<?xml version="1.0" encoding="utf-8"?>
<svg version="1.1" xmlns:xlink="http://www.w3.org/1999/xlink" width="20px" height="20px" xmlns="http://www.w3.org/2000/svg">
  <g transform="matrix(1 0 0 1 -191 -725 )">
    <path d="M 20 10  C 20 4.4775  15.5225 0  10 0  C 4.4775 0  0 4.4775  0 10  C 0 15.5225  4.4775 20  10 20  C 15.5225 20  20 15.5225  20 10  Z M 13.4841666666667 4.27583333333333  L 13.4841666666667 6.66666666666667  L 12.0433333333333 6.66666666666667  C 11.1466666666667 6.66666666666667  10.8333333333333 7.14  10.8333333333333 8.09833333333333  L 10.8333333333333 9.16666666666667  L 13.4616666666667 9.16666666666667  L 13.105 11.6666666666667  L 10.8333333333333 11.6666666666667  L 10.8333333333333 18.2916666666667  C 10.5591666666667 18.3183333333333  10.2816666666667 18.3333333333333  10 18.3333333333333  C 9.42916666666667 18.3333333333333  8.87166666666667 18.275  8.33333333333333 18.1658333333333  L 8.33333333333333 11.6666666666667  L 5.83333333333333 11.6666666666667  L 5.83333333333333 9.16666666666667  L 8.33333333333333 9.16666666666667  L 8.33333333333333 7.82416666666667  C 8.33333333333333 5.2825  9.57166666666667 4.16666666666667  11.6841666666667 4.16666666666667  C 12.6958333333333 4.16666666666667  13.2308333333333 4.24166666666667  13.4841666666667 4.27583333333333  Z " fill-rule="nonzero" fill="#000000" stroke="none" transform="matrix(1 0 0 1 191 725 )" />
  </g>
</svg>