<?xml version="1.0" encoding="utf-8"?>
<svg version="1.1" xmlns:xlink="http://www.w3.org/1999/xlink" width="20px" height="10px" xmlns="http://www.w3.org/2000/svg">
  <g transform="matrix(1 0 0 1 -191 -686 )">
    <path d="M 5 8.1  C 3.29 8.1  1.9 6.71  1.9 5  C 1.9 3.29  3.29 1.9  5 1.9  L 9 1.9  L 9 0  L 5 0  C 2.24 0  0 2.24  0 5  C 0 7.76  2.24 10  5 10  L 9 10  L 9 8.1  L 5 8.1  Z M 6 4  L 6 6  L 14 6  L 14 4  L 6 4  Z M 20 5  C 20 2.24  17.76 0  15 0  L 11 0  L 11 1.9  L 15 1.9  C 16.71 1.9  18.1 3.29  18.1 5  C 18.1 6.71  16.71 8.1  15 8.1  L 11 8.1  L 11 10  L 15 10  C 17.76 10  20 7.76  20 5  Z " fill-rule="nonzero" fill="#aaaaaa" stroke="none" transform="matrix(1 0 0 1 191 686 )" />
  </g>
</svg>