<?xml version="1.0" encoding="utf-8"?>
<svg version="1.1" xmlns:xlink="http://www.w3.org/1999/xlink" width="9px" height="11px" xmlns="http://www.w3.org/2000/svg">
  <g transform="matrix(1 0 0 1 -100 -48 )">
    <path d="M 6.45490506329114 0.315412186379928  L 6.45490506329114 4.00054443990745  C 5.89319620253165 3.3981670523116  5.10680379746836 3.07926137652557  4.09572784810127 3.07926137652557  C 3.04720464135021 3.07926137652557  2.18591772151899 3.46903498026405  1.43697257383966 4.2131482237648  C 0.688027426160339 4.95726146726555  0.351002109704643 5.91397849462366  0.351002109704643 7.01243137788667  C 0.351002109704643 8.11088426114968  0.725474683544302 9.03216732453156  1.43697257383966 9.81171453200853  C 2.18591772151899 10.5558277755093  3.04720464135021 10.9456013792478  4.09572784810127 10.9456013792478  C 5.10680379746836 10.9456013792478  5.89319620253165 10.6266957034617  6.45490506329114 10.0243183158659  L 6.45490506329114 10.7329975953904  L 8.81408227848102 10.7329975953904  L 8.81408227848102 0.315412186379928  L 6.45490506329114 0.315412186379928  Z M 6.45490506329114 7.04786534186289  C 6.45490506329114 7.57937480150628  6.26766877637131 8.004582369221  5.93064345991561 8.35892200898326  C 5.59361814345991 8.67782768476929  5.14425105485232 8.85499750465042  4.58254219409283 8.85499750465042  C 4.02083333333334 8.85499750465042  3.57146624472574 8.67782768476929  3.23444092827004 8.35892200898326  C 2.89741561181435 8.04001633319722  2.71017932489452 7.57937480150629  2.71017932489452 7.04786534186289  C 2.71017932489452 6.48092191824327  2.89741561181435 6.05571435052856  3.23444092827004 5.73680867474253  C 3.57146624472574 5.41790299895649  4.02083333333334 5.24073317907536  4.58254219409283 5.24073317907536  C 5.14425105485232 5.24073317907536  5.59361814345992 5.41790299895649  5.93064345991561 5.73680867474253  C 6.26766877637131 6.05571435052856  6.45490506329114 6.5163558822195  6.45490506329114 7.04786534186289  Z " fill-rule="nonzero" fill="#000000" stroke="none" transform="matrix(1 0 0 1 100 48 )" />
  </g>
</svg>