<?xml version="1.0" encoding="utf-8"?>
<svg version="1.1" xmlns:xlink="http://www.w3.org/1999/xlink" width="3px" height="3px" xmlns="http://www.w3.org/2000/svg">
  <g transform="matrix(1 0 0 1 -110 -47 )">
    <path d="M 2.32981715893108 0.662916080637599  C 2.06352555086732 0.39662447257384  1.7639474917956 0.29676511954993  1.4310829817159 0.29676511954993  C 1.0982184716362 0.29676511954993  0.798640412564462 0.42991092358181  0.532348804500714 0.6629160806376  C 0.299343647444924 0.895921237693389  0.166197843413045 1.19549929676512  0.166197843413045 1.56165025785279  C 0.166197843413045 1.89451476793249  0.299343647444924 2.19409282700422  0.532348804500714 2.46038443506798  C 0.765353961556495 2.69338959212377  1.06493202062823 2.82653539615565  1.4310829817159 2.82653539615565  C 1.7639474917956 2.82653539615565  2.06352555086733 2.69338959212377  2.32981715893108 2.46038443506798  C 2.56282231598686 2.22737927801219  2.69596812001875 1.92780121894046  2.69596812001875 1.56165025785279  C 2.69596812001875 1.22878574777309  2.56282231598686 0.92920768870136  2.32981715893108 0.662916080637599  Z " fill-rule="nonzero" fill="#000000" stroke="none" transform="matrix(1 0 0 1 110 47 )" />
  </g>
</svg>