<?xml version="1.0" encoding="utf-8"?>
<svg version="1.1" xmlns:xlink="http://www.w3.org/1999/xlink" width="8px" height="8px" xmlns="http://www.w3.org/2000/svg">
  <g transform="matrix(1 0 0 1 -126 -51 )">
    <path d="M 5.67406592062617 7.73827432275423  L 7.86228826515013 7.73827432275423  L 7.86228826515013 0.444199841007765  L 5.67406592062617 0.444199841007765  L 5.67406592062617 1.1388736011741  C 5.15306060050143 0.548400905032715  4.42365315232679 0.235797712957866  3.48584357610223 0.235797712957866  C 2.51330031186936 0.235797712957866  1.71442548767809 0.617868281049349  1.01975172751176 1.347275729224  C 0.32507796734543 2.07668317739864  0.0124747752705765 3.01449275362319  0.0124747752705765 4.091237081881  C 0.0124747752705765 5.16798141013881  0.359811655353744 6.07105729835504  1.01975172751176 6.835198434538  C 1.71442548767809 7.56460588271265  2.51330031186937 7.94667645080413  3.48584357610223 7.94667645080413  C 4.42365315232678 7.94667645080413  5.15306060050143 7.63407325872929  5.67406592062617 7.0436005625879  L 5.67406592062617 7.73827432275423  Z M 5.67406592062618 4.12597076988932  C 5.67406592062618 4.64697609001407  5.53513116859292 5.06378034611386  5.18779428850975 5.41111722619703  C 4.87519109643491 5.72372041827188  4.45838684033511 5.89738885831346  3.93738152021036 5.89738885831346  C 3.41637620008561 5.89738885831346  2.99957194398582 5.72372041827188  2.68696875191097 5.41111722619703  C 2.37436555983612 5.09851403412218  2.20069711979453 4.64697609001407  2.20069711979453 4.12597076988932  C 2.20069711979453 3.57023176175625  2.37436555983612 3.15342750565646  2.68696875191097 2.84082431358161  C 2.99957194398582 2.52822112150676  3.41637620008561 2.35455268146518  3.93738152021036 2.35455268146518  C 4.45838684033511 2.35455268146518  4.87519109643491 2.52822112150676  5.18779428850975 2.84082431358161  C 5.5003974805846 3.15342750565646  5.67406592062618 3.60496544976457  5.67406592062618 4.12597076988932  Z " fill-rule="nonzero" fill="#000000" stroke="none" transform="matrix(1 0 0 1 126 51 )" />
  </g>
</svg>