<?xml version="1.0" encoding="utf-8"?>
<svg version="1.1" xmlns:xlink="http://www.w3.org/1999/xlink" width="6px" height="8px" xmlns="http://www.w3.org/2000/svg">
  <g transform="matrix(1 0 0 1 -63 -40 )">
    <path d="M 4.30327004219409 0.229390681003584  L 4.30327004219409 2.90948686538723  C 3.92879746835443 2.47139421986298  3.4045358649789 2.23946281929132  2.73048523206751 2.23946281929132  C 2.03146976090014 2.23946281929132  1.45727848101266 2.52293453110113  0.957981715893109 3.06410779910168  C 0.458684950773559 3.60528106710222  0.234001406469762 4.30107526881721  0.234001406469762 5.09995009300849  C 0.234001406469762 5.89882491719977  0.483649789029535 6.56884896329568  0.957981715893109 7.13579238691529  C 1.45727848101266 7.67696565491584  2.03146976090014 7.96043736672565  2.73048523206751 7.96043736672565  C 3.4045358649789 7.96043736672565  3.92879746835443 7.72850596615399  4.30327004219409 7.29041332062974  L 4.30327004219409 7.80581643301121  L 5.87605485232068 7.80581643301121  L 5.87605485232068 0.229390681003584  L 4.30327004219409 0.229390681003584  Z M 4.30327004219409 5.12572024862756  C 4.30327004219409 5.51227258291366  4.1784458509142 5.82151445034254  3.95376230661041 6.07921600653328  C 3.72907876230661 6.31114740710494  3.42950070323488 6.43999818520031  3.05502812939522 6.43999818520031  C 2.68055555555556 6.43999818520031  2.38097749648383 6.31114740710494  2.15629395218003 6.07921600653328  C 1.93161040787623 5.84728460596162  1.80678621659634 5.51227258291366  1.80678621659634 5.12572024862756  C 1.80678621659634 4.71339775872238  1.93161040787623 4.4041558912935  2.15629395218003 4.17222449072184  C 2.38097749648383 3.94029309015018  2.68055555555556 3.81144231205481  3.05502812939522 3.81144231205481  C 3.42950070323488 3.81144231205481  3.72907876230661 3.94029309015018  3.95376230661041 4.17222449072184  C 4.1784458509142 4.4041558912935  4.30327004219409 4.73916791434146  4.30327004219409 5.12572024862756  Z " fill-rule="nonzero" fill="#000000" stroke="none" transform="matrix(1 0 0 1 63 40 )" />
  </g>
</svg>