<?xml version="1.0" encoding="utf-8"?>
<svg version="1.1" xmlns:xlink="http://www.w3.org/1999/xlink" width="9px" height="8px" xmlns="http://www.w3.org/2000/svg">
  <g transform="matrix(1 0 0 1 -149 -51 )">
    <path d="M 8.81882911392407 0.444199841007767  L 6.45965189873418 0.444199841007766  L 6.45965189873418 1.1388736011741  C 5.89794303797468 0.548400905032716  5.11155063291138 0.235797712957868  4.10047468354429 0.235797712957868  C 3.05195147679324 0.235797712957868  2.19066455696202 0.61786828104935  1.44171940928269 1.347275729224  C 0.692774261603368 2.07668317739864  0.355748945147667 3.01449275362319  0.355748945147667 4.091237081881  C 0.355748945147667 5.16798141013882  0.730221518987332 6.07105729835504  1.44171940928269 6.83519843453801  C 2.19066455696202 7.56460588271265  3.05195147679325 7.94667645080414  4.10047468354429 7.94667645080414  C 5.11155063291137 7.94667645080414  5.89794303797468 7.63407325872929  6.45965189873418 7.04360056258791  L 6.45965189873418 7.73827432275424  L 8.81882911392407 7.73827432275424  L 8.81882911392407 0.444199841007767  Z M 6.45965189873418 4.12597076988932  C 6.45965189873418 4.64697609001407  6.27241561181435 5.06378034611386  5.93539029535865 5.41111722619703  C 5.59836497890295 5.72372041827188  5.14899789029536 5.89738885831346  4.58728902953587 5.89738885831346  C 4.02558016877638 5.89738885831346  3.57621308016878 5.72372041827188  3.23918776371308 5.41111722619703  C 2.90216244725739 5.09851403412218  2.71492616033756 4.64697609001407  2.71492616033756 4.12597076988932  C 2.71492616033756 3.57023176175625  2.90216244725739 3.15342750565646  3.23918776371308 2.84082431358161  C 3.57621308016878 2.52822112150676  4.02558016877638 2.35455268146518  4.58728902953587 2.35455268146518  C 5.14899789029536 2.35455268146518  5.59836497890295 2.52822112150676  5.93539029535865 2.84082431358161  C 6.27241561181435 3.15342750565646  6.45965189873418 3.60496544976457  6.45965189873418 4.12597076988932  Z " fill-rule="nonzero" fill="#000000" stroke="none" transform="matrix(1 0 0 1 149 51 )" />
  </g>
</svg>