<?xml version="1.0" encoding="utf-8"?>
<svg version="1.1" xmlns:xlink="http://www.w3.org/1999/xlink" width="5px" height="5px" xmlns="http://www.w3.org/2000/svg">
  <g transform="matrix(1 0 0 1 -137 -63 )">
    <path d="M 4.27792847096644 0.127123228389051  L 4.27792847096644 1.16412420209889  C 4.09960819770946 0.818457210862276  3.84995981514969 0.549605106567134  3.52898332328713 0.319160445742725  C 3.20800683142455 0.127123228389051  2.85136628491059 0.0119008979768482  2.45906168374523 0.0119008979768482  C 1.8527727546715 0.0119008979768482  1.31781193490055 0.242345558801257  0.889843279083787 0.703234880450071  C 0.461874623267034 1.16412420209889  0.247890295358642 1.74023585415991  0.247890295358642 2.39316239316239  C 0.247890295358642 3.08449637563562  0.461874623267024 3.6222005842259  0.889843279083787 4.08308990587472  C 1.31781193490054 4.54397922752353  1.85277275467149 4.77442388834794  2.45906168374523 4.77442388834794  C 2.85136628491059 4.77442388834794  3.20800683142455 4.65920155793573  3.52898332328713 4.46716434058206  C 3.84995981514969 4.27512712322839  4.09960819770946 4.00627501893325  4.27792847096644 3.6222005842259  L 4.27792847096644 4.65920155793573  L 4.70589712678319 4.65920155793573  L 4.70589712678319 0.127123228389051  L 4.27792847096644 0.127123228389051  Z M 4.27792847096644 2.43156983663313  C 4.27792847096644 2.96927404522341  4.09960819770946 3.43016336687223  3.7429676511955 3.81423780157958  C 3.38632710468153 4.19831223628692  2.95835844886478 4.39034945364059  2.45906168374523 4.39034945364059  C 1.95976491862568 4.39034945364059  1.53179626280892 4.19831223628692  1.17515571629496 3.81423780157958  C 0.81851516978099 3.43016336687223  0.640194896524012 2.96927404522341  0.640194896524012 2.43156983663313  C 0.640194896524012 1.89386562804284  0.81851516978099 1.43297630639403  1.17515571629496 1.04890187168668  C 1.53179626280892 0.664827436979336  1.95976491862568 0.472790219625662  2.45906168374523 0.472790219625662  C 2.95835844886478 0.472790219625662  3.38632710468153 0.664827436979336  3.7429676511955 1.04890187168668  C 4.09960819770946 1.43297630639403  4.27792847096644 1.89386562804284  4.27792847096644 2.43156983663313  Z " fill-rule="nonzero" fill="#000000" stroke="none" transform="matrix(1 0 0 1 137 63 )" />
  </g>
</svg>