<?xml version="1.0" encoding="utf-8"?>
<svg version="1.1" xmlns:xlink="http://www.w3.org/1999/xlink" width="4px" height="4px" xmlns="http://www.w3.org/2000/svg">
  <g transform="matrix(1 0 0 1 -117 -40 )">
    <path d="M 3.10642287857478 0.883888107516799  C 2.75136740115642 0.528832630098453  2.3519299890608 0.395686826066573  1.90811064228786 0.395686826066573  C 1.46429129551493 0.395686826066573  1.06485388341928 0.573214564775747  0.709798406000952 0.8838881075168  C 0.399124863259898 1.19456165025785  0.221597124550726 1.59399906235349  0.221597124550726 2.08220034380372  C 0.221597124550726 2.52601969057665  0.399124863259898 2.92545710267229  0.709798406000952 3.28051258009064  C 1.02047194874199 3.59118612283169  1.41990936083764 3.76871386154087  1.90811064228786 3.76871386154087  C 2.3519299890608 3.76871386154087  2.75136740115643 3.59118612283169  3.10642287857478 3.28051258009064  C 3.41709642131582 2.96983903734959  3.594624160025 2.57040162525395  3.594624160025 2.08220034380372  C 3.594624160025 1.63838099703079  3.41709642131582 1.23894358493515  3.10642287857478 0.883888107516799  Z " fill-rule="nonzero" fill="#000000" stroke="none" transform="matrix(1 0 0 1 117 40 )" />
  </g>
</svg>