<?xml version="1.0" encoding="utf-8"?>
<svg version="1.1" xmlns:xlink="http://www.w3.org/1999/xlink" width="6px" height="8px" xmlns="http://www.w3.org/2000/svg">
  <g transform="matrix(1 0 0 1 -76 -40 )">
    <path d="M 1.91946431847368 5.43496211605644  L 1.94551458447991 5.43496211605644  L 3.09172628875435 5.43496211605644  C 3.84718400293525 5.43496211605644  4.47239038708495 5.17726055986571  4.99339570720969 4.68762760310331  C 5.51440102733444 4.17222449072184  5.77490368739682 3.57951091148315  5.77490368739682 2.85794655414909  C 5.77490368739682 2.13638219681503  5.51440102733444 1.51789846195726  4.99339570720969 1.00249534957579  C 4.47239038708495 0.48709223719432  3.84718400293525 0.255160836622658  3.09172628875435 0.255160836622658  L 0.17409649605577 0.255160836622658  L 0.17409649605577 7.85735674424935  L 1.91946431847368 7.85735674424935  L 1.91946431847368 5.43496211605644  Z M 1.94551458447991 3.81144231205481  L 1.94551458447991 1.85291048500522  L 3.09172628875435 1.85291048500522  C 3.35222894881673 1.85291048500522  3.58668134287287 1.95599110748151  3.76903320491653 2.13638219681503  C 3.95138506696019 2.31677328614854  4.0295358649789 2.5487046867202  4.0295358649789 2.83217639853001  C 4.0295358649789 3.11564811033982  3.95138506696019 3.34757951091148  3.76903320491653 3.527970600245  C 3.58668134287287 3.70836168957851  3.37827921482297 3.81144231205481  3.09172628875435 3.81144231205481  L 1.94551458447991 3.81144231205481  Z " fill-rule="nonzero" fill="#000000" stroke="none" transform="matrix(1 0 0 1 76 40 )" />
  </g>
</svg>