<?xml version="1.0" encoding="utf-8"?>
<svg version="1.1" xmlns:xlink="http://www.w3.org/1999/xlink" width="6px" height="6px" xmlns="http://www.w3.org/2000/svg">
  <g transform="matrix(1 0 0 1 -82 -42 )">
    <path d="M 4.25554944046963 5.80370574206568  L 5.89671619886259 5.80370574206568  L 5.89671619886259 0.333149880755824  L 4.25554944046963 0.333149880755824  L 4.25554944046963 0.854155200880572  C 3.86479545037607 0.411300678774536  3.31773986424509 0.1768482847184  2.61438268207667 0.1768482847184  C 1.88497523390202 0.1768482847184  1.28581911575857 0.463401210787011  0.764813795633823 1.010456796918  C 0.243808475509072 1.55751238304898  0.00935608145293234 2.26086956521739  0.00935608145293234 3.06842781141075  C 0.00935608145293234 3.87598605760411  0.269858741515308 4.55329297376628  0.764813795633823 5.1263988259035  C 1.28581911575857 5.67345441203449  1.88497523390203 5.9600073381031  2.61438268207667 5.9600073381031  C 3.31773986424508 5.9600073381031  3.86479545037607 5.72555494404696  4.25554944046963 5.28270042194093  L 4.25554944046963 5.80370574206568  Z M 4.25554944046964 3.09447807741699  C 4.25554944046964 3.48523206751055  4.15134837644469 3.7978352595854  3.89084571638231 4.05833791964777  C 3.65639332232618 4.29279031370391  3.34379013025133 4.4230416437351  2.95303614015777 4.4230416437351  C 2.56228215006421 4.4230416437351  2.24967895798936 4.29279031370391  2.01522656393323 4.05833791964777  C 1.78077416987709 3.82388552559164  1.6505228398459 3.48523206751055  1.6505228398459 3.09447807741699  C 1.6505228398459 2.67767382131719  1.78077416987709 2.36507062924234  2.01522656393323 2.13061823518621  C 2.24967895798936 1.89616584113007  2.56228215006421 1.76591451109888  2.95303614015777 1.76591451109888  C 3.34379013025133 1.76591451109888  3.65639332232618 1.89616584113007  3.89084571638231 2.13061823518621  C 4.12529811043845 2.36507062924234  4.25554944046964 2.70372408732343  4.25554944046964 3.09447807741699  Z " fill-rule="nonzero" fill="#000000" stroke="none" transform="matrix(1 0 0 1 82 42 )" />
  </g>
</svg>