<?xml version="1.0" encoding="utf-8"?>
<svg version="1.1" xmlns:xlink="http://www.w3.org/1999/xlink" width="11px" height="11px" xmlns="http://www.w3.org/2000/svg">
  <g transform="matrix(1 0 0 1 -152 -45 )">
    <path d="M 9.21711612548157 1.85250412768299  C 8.16642206322999 0.849568886442856  6.92469271693267 0.324221855317067  5.44416926557818 0.324221855317067  C 3.9636458142237 0.324221855317067  2.72191646792638 0.849568886442856  1.6712224056748 1.85250412768299  C 0.620528343423225 2.85543936892313  0.14294013330887 4.14492753623188  0.14294013330887 5.62545098758638  C 0.14294013330887 7.10597443894087  0.668287164434656 8.34770378523818  1.6712224056748 9.39839784748976  C 2.72191646792637 10.4013330887299  3.9636458142237 10.9266801198557  5.44416926557818 10.9266801198557  C 6.92469271693267 10.9266801198557  8.16642206322999 10.4013330887299  9.21711612548157 9.39839784748976  C 10.2678101877331 8.39546260624961  10.7453983978475 7.10597443894087  10.7453983978475 5.62545098758638  C 10.7453983978475 4.14492753623188  10.2200513667217 2.90319818993457  9.21711612548157 1.85250412768299  Z M 7.73659267412708 5.62545098758638  C 7.73659267412708 6.3418333027579  7.4977985690699 6.91493915489513  7.06796917996698 7.34476854399804  C 6.63813979086406 7.77459793310096  6.06503393872684 8.01339203815814  5.39641044456675 8.01339203815814  C 4.72778695040665 8.01339203815814  4.20243991928087 7.77459793310096  3.72485170916651 7.34476854399804  C 3.2950223200636 6.91493915489513  3.05622821500642 6.3418333027579  3.05622821500642 5.62545098758638  C 3.05622821500642 4.90906867241485  3.2950223200636 4.33596282027762  3.72485170916651 3.90613343117471  C 4.15468109826943 3.47630404207179  4.72778695040665 3.23750993701462  5.39641044456675 3.23750993701462  C 6.06503393872684 3.23750993701462  6.59038096985263 3.47630404207179  7.06796917996698 3.90613343117471  C 7.4977985690699 4.33596282027762  7.73659267412708 4.90906867241485  7.73659267412708 5.62545098758638  Z " fill-rule="nonzero" fill="#000000" stroke="none" transform="matrix(1 0 0 1 152 45 )" />
  </g>
</svg>