<?xml version="1.0" encoding="utf-8"?>
<svg version="1.1" xmlns:xlink="http://www.w3.org/1999/xlink" width="6px" height="6px" xmlns="http://www.w3.org/2000/svg">
  <g transform="matrix(1 0 0 1 -89 -42 )">
    <path d="M 5.02751788662631 1.010456796918  C 4.45441203448908 0.463401210787012  3.77710511832691 0.1768482847184  2.96954687213355 0.1768482847184  C 2.1619886259402 0.1768482847184  1.48468170977803 0.463401210787012  0.911575857640798 1.010456796918  C 0.338470005503577 1.55751238304898  0.0779673454412017 2.26086956521739  0.0779673454412017 3.06842781141075  C 0.0779673454412017 3.87598605760411  0.364520271509812 4.55329297376628  0.911575857640798 5.1263988259035  C 1.48468170977802 5.67345441203449  2.1619886259402 5.9600073381031  2.96954687213355 5.9600073381031  C 3.77710511832691 5.9600073381031  4.45441203448908 5.67345441203449  5.02751788662631 5.1263988259035  C 5.60062373876353 4.57934323977252  5.8611263988259 3.87598605760411  5.8611263988259 3.06842781141075  C 5.8611263988259 2.26086956521739  5.57457347275729 1.58356264905522  5.02751788662631 1.010456796918  Z M 4.21995964043295 3.06842781141075  C 4.21995964043295 3.45918180150431  4.08970831040177 3.77178499357916  3.85525591634563 4.0062373876353  C 3.62080352228949 4.24068978169143  3.30820033021464 4.37094111172262  2.94349660612732 4.37094111172262  C 2.57879288203999 4.37094111172262  2.29223995597138 4.24068978169143  2.03173729590901 4.0062373876353  C 1.79728490185287 3.77178499357916  1.66703357182168 3.45918180150431  1.66703357182168 3.06842781141075  C 1.66703357182168 2.67767382131719  1.79728490185287 2.36507062924234  2.03173729590901 2.1306182351862  C 2.26618968996515 1.89616584113007  2.57879288203999 1.76591451109888  2.94349660612732 1.76591451109888  C 3.30820033021464 1.76591451109888  3.59475325628325 1.89616584113007  3.85525591634563 2.1306182351862  C 4.08970831040177 2.36507062924234  4.21995964043295 2.67767382131719  4.21995964043295 3.06842781141075  Z " fill-rule="nonzero" fill="#000000" stroke="none" transform="matrix(1 0 0 1 89 42 )" />
  </g>
</svg>