<?xml version="1.0" encoding="utf-8"?>
<svg version="1.1" xmlns:xlink="http://www.w3.org/1999/xlink" width="8px" height="11px" xmlns="http://www.w3.org/2000/svg">
  <g transform="matrix(1 0 0 1 -118 -48 )">
    <path d="M 2.5592857579649 7.47307290957761  L 2.59401944597322 7.47307290957761  L 4.12230171833914 7.47307290957761  C 5.12957867058033 7.47307290957761  5.96318718277993 7.11873326981535  6.65786094294625 6.44548795426705  C 7.35253470311259 5.73680867474253  7.69987158319575 4.92182750328933  7.69987158319575 3.92967651195499  C 7.69987158319575 2.93752552062066  7.35253470311259 2.08711038519124  6.65786094294625 1.37843110566671  C 5.96318718277993 0.66975182614219  5.12957867058033 0.350846150356155  4.12230171833914 0.350846150356155  L 0.232128661407693 0.350846150356155  L 0.232128661407693 10.8038655233429  L 2.5592857579649 10.8038655233429  L 2.5592857579649 7.47307290957761  Z M 2.59401944597322 5.24073317907536  L 2.59401944597322 2.54775191688217  L 4.12230171833914 2.54775191688217  C 4.46963859842231 2.54775191688217  4.78224179049716 2.68948777278708  5.02537760655538 2.93752552062066  C 5.26851342261358 3.18556326845424  5.37271448663853 3.50446894424028  5.37271448663853 3.89424254797877  C 5.37271448663853 4.28401615171725  5.26851342261358 4.60292182750329  5.02537760655538 4.85095957533687  C 4.78224179049716 5.09899732317045  4.50437228643062 5.24073317907536  4.12230171833914 5.24073317907536  L 2.59401944597322 5.24073317907536  Z " fill-rule="nonzero" fill="#000000" stroke="none" transform="matrix(1 0 0 1 118 48 )" />
  </g>
</svg>