<?xml version="1.0" encoding="utf-8"?>
<svg version="1.1" xmlns:xlink="http://www.w3.org/1999/xlink" width="8px" height="8px" xmlns="http://www.w3.org/2000/svg">
  <g transform="matrix(1 0 0 1 -136 -51 )">
    <path d="M 6.70335718216842 1.347275729224  C 5.93921604598544 0.61786828104935  5.03614015776922 0.235797712957867  3.9593958295114 0.235797712957867  C 2.8826515012536 0.235797712957867  1.97957561303737 0.61786828104935  1.2154344768544 1.347275729224  C 0.451293340671436 2.07668317739864  0.103956460588269 3.01449275362319  0.103956460588269 4.091237081881  C 0.103956460588269 5.16798141013881  0.48602702867975 6.07105729835504  1.2154344768544 6.835198434538  C 1.97957561303736 7.56460588271265  2.8826515012536 7.94667645080413  3.9593958295114 7.94667645080413  C 5.03614015776922 7.94667645080413  5.93921604598544 7.56460588271265  6.70335718216842 6.835198434538  C 7.46749831835137 6.10579098636336  7.81483519843453 5.16798141013881  7.81483519843453 4.091237081881  C 7.81483519843453 3.01449275362319  7.43276463034305 2.11141686540696  6.70335718216842 1.347275729224  Z M 5.6266128539106 4.091237081881  C 5.6266128539106 4.61224240200575  5.45294441386902 5.02904665810555  5.14034122179417 5.3416498501804  C 4.82773802971931 5.65425304225524  4.41093377361952 5.82792148229683  3.92466214150309 5.82792148229683  C 3.43839050938666 5.82792148229683  3.05631994129517 5.65425304225524  2.70898306121201 5.3416498501804  C 2.39637986913716 5.02904665810555  2.22271142909558 4.61224240200575  2.22271142909558 4.091237081881  C 2.22271142909558 3.57023176175625  2.39637986913716 3.15342750565645  2.70898306121201 2.84082431358161  C 3.02158625328686 2.52822112150676  3.43839050938666 2.35455268146517  3.92466214150309 2.35455268146517  C 4.41093377361952 2.35455268146517  4.793004341711 2.52822112150676  5.14034122179417 2.84082431358161  C 5.45294441386902 3.15342750565645  5.6266128539106 3.57023176175625  5.6266128539106 4.091237081881  Z " fill-rule="nonzero" fill="#000000" stroke="none" transform="matrix(1 0 0 1 136 51 )" />
  </g>
</svg>