<?xml version="1.0" encoding="utf-8"?>
<svg version="1.1" xmlns:xlink="http://www.w3.org/1999/xlink" width="5px" height="5px" xmlns="http://www.w3.org/2000/svg">
  <g transform="matrix(1 0 0 1 -122 -63 )">
    <path d="M 4.3608676836525 0.127123228389051  L 4.3608676836525 1.16412420209889  C 4.16883046629883 0.818457210862276  3.89997836200368 0.549605106567134  3.55431137076707 0.319160445742725  C 3.20864437953046 0.127123228389051  2.82456994482311 0.0119008979768482  2.40208806664503 0.0119008979768482  C 1.74916152764255 0.0119008979768482  1.17304987558153 0.242345558801257  0.712160553932703 0.703234880450071  C 0.251271232283891 1.16412420209889  0.0208265714594802 1.74023585415991  0.0208265714594802 2.39316239316239  C 0.0208265714594802 3.08449637563562  0.25127123228388 3.6222005842259  0.712160553932703 4.08308990587472  C 1.17304987558151 4.54397922752353  1.74916152764254 4.77442388834794  2.40208806664503 4.77442388834794  C 2.82456994482311 4.77442388834794  3.20864437953046 4.65920155793573  3.55431137076707 4.46716434058206  C 3.89997836200368 4.27512712322839  4.16883046629883 4.00627501893325  4.3608676836525 3.6222005842259  L 4.3608676836525 4.65920155793573  L 4.82175700530131 4.65920155793573  L 4.82175700530131 0.127123228389051  L 4.3608676836525 0.127123228389051  Z M 4.3608676836525 2.43156983663313  C 4.3608676836525 2.96927404522341  4.16883046629883 3.43016336687223  3.78475603159148 3.81423780157958  C 3.40068159688413 4.19831223628692  2.93979227523532 4.39034945364059  2.40208806664503 4.39034945364059  C 1.86438385805475 4.39034945364059  1.40349453640594 4.19831223628692  1.01942010169859 3.81423780157958  C 0.63534566699124 3.43016336687223  0.443308449637571 2.96927404522341  0.443308449637571 2.43156983663313  C 0.443308449637571 1.89386562804284  0.63534566699124 1.43297630639403  1.01942010169859 1.04890187168668  C 1.40349453640594 0.664827436979336  1.86438385805475 0.472790219625662  2.40208806664503 0.472790219625662  C 2.93979227523532 0.472790219625662  3.40068159688413 0.664827436979336  3.78475603159148 1.04890187168668  C 4.16883046629883 1.43297630639403  4.3608676836525 1.89386562804284  4.3608676836525 2.43156983663313  Z " fill-rule="nonzero" fill="#000000" stroke="none" transform="matrix(1 0 0 1 122 63 )" />
  </g>
</svg>