<?xml version="1.0" encoding="utf-8"?>
<svg version="1.1" xmlns:xlink="http://www.w3.org/1999/xlink" width="3px" height="6px" xmlns="http://www.w3.org/2000/svg">
  <g transform="matrix(1 0 0 1 -127 -62 )">
    <path d="M 1.5759493670886 1.52841896252172  L 1.57594936708861 0.330106726234798  L 1.17651195499298 0.471084636386201  L 1.17651195499298 1.52841896252172  L 0.311064228785748 1.52841896252172  L 0.311064228785748 1.95135269297593  L 1.17651195499297 1.95135269297593  L 1.17651195499297 4.70042194092827  C 1.17651195499297 5.15860014892033  1.30965775902484 5.47580044676098  1.5759493670886 5.65202283445024  C 1.84224097515237 5.82824522213949  2.24167838724801 5.86348969967734  2.77426160337552 5.75775626706379  L 2.77426160337552 5.37006701414743  C 2.50796999531175 5.40531149168528  2.27496483825597 5.40531149168528  2.10853258321612 5.40531149168528  C 1.94210032817627 5.40531149168528  1.80895452414439 5.33482253660958  1.70909517112048 5.22908910399603  C 1.60923581809657 5.12335567138248  1.5759493670886 4.94713328369322  1.5759493670886 4.70042194092827  L 1.5759493670886 1.95135269297593  L 2.77426160337552 1.95135269297593  L 2.77426160337552 1.52841896252172  L 1.5759493670886 1.52841896252172  Z " fill-rule="nonzero" fill="#000000" stroke="none" transform="matrix(1 0 0 1 127 62 )" />
  </g>
</svg>