<?xml version="1.0" encoding="utf-8"?>
<svg version="1.1" xmlns:xlink="http://www.w3.org/1999/xlink" width="4px" height="5px" xmlns="http://www.w3.org/2000/svg">
  <g transform="matrix(1 0 0 1 -133 -63 )">
    <path d="M 3.19984656693516 0.549605106567134  C 2.90934663086561 0.203938115330522  2.50990921876998 0.0119008979768482  2.00153433064825 0.0119008979768482  C 1.27528449047436 0.0119008979768482  0.766909602352639 0.319160445742725  0.440097174274384 0.972086984745213  L 0.440097174274384 0.0887157849183195  L 0.00434727017005281 0.0887157849183195  L 0.00434727017005281 4.65920155793574  L 0.440097174274384 4.65920155793574  L 0.440097174274384 2.27794006275019  C 0.440097174274384 1.70182841068917  0.585347142309161 1.24093908904036  0.875847078378714 0.933679541274479  C 1.16634701444828 0.626419993508602  1.52947193453522 0.472790219625662  1.96522183863955 0.472790219625662  C 2.36465925073519 0.472790219625662  2.69147167881344 0.588012550037865  2.9093466308656 0.856864654333008  C 3.12722158291777 1.12571675862815  3.23615905894386 1.43297630639403  3.23615905894386 1.89386562804284  L 3.23615905894386 4.73601644487721  L 3.67190896304819 4.73601644487721  L 3.67190896304819 1.89386562804284  C 3.67190896304819 1.35616141945256  3.52665899501341 0.895272097803745  3.19984656693516 0.549605106567134  Z " fill-rule="nonzero" fill="#000000" stroke="none" transform="matrix(1 0 0 1 133 63 )" />
  </g>
</svg>