<?xml version="1.0" encoding="utf-8"?>
<svg version="1.1" xmlns:xlink="http://www.w3.org/1999/xlink" width="6px" height="6px" xmlns="http://www.w3.org/2000/svg">
  <g transform="matrix(1 0 0 1 -133 -62 )">
    <path d="M 5.23304122038299 0.152547874066861  L 5.23304122038299 1.39694904251867  C 5.00259655955859 0.982148653034732  4.67997403440442 0.65952612788056  4.26517364492048 0.38299253489127  C 3.85037325543655 0.152547874066861  3.38948393378774 0.0142810775722178  2.88250567997404 0.0142810775722178  C 2.09899383317106 0.0142810775722178  1.40765985069783 0.290814670561508  0.854592664719243 0.843881856540085  C 0.30152547874067 1.39694904251867  0.0249918857513762 2.08828302499189  0.0249918857513762 2.87179487179487  C 0.0249918857513762 3.70139565076274  0.301525478740656 4.34664070107108  0.854592664719243 4.89970788704966  C 1.40765985069782 5.45277507302824  2.09899383317105 5.72930866601753  2.88250567997404 5.72930866601753  C 3.38948393378774 5.72930866601753  3.85037325543655 5.59104186952288  4.26517364492048 5.36059720869847  C 4.67997403440442 5.13015254787407  5.00259655955859 4.8075300227199  5.23304122038299 4.34664070107108  L 5.23304122038299 5.59104186952288  L 5.78610840636157 5.59104186952288  L 5.78610840636157 0.152547874066861  L 5.23304122038299 0.152547874066861  Z M 5.23304122038299 2.91788380395975  C 5.23304122038299 3.56312885426809  5.00259655955859 4.11619604024667  4.54170723790977 4.57708536189549  C 4.08081791626096 5.0379746835443  3.52775073028238 5.26841934436871  2.88250567997404 5.26841934436871  C 2.2372606296657 5.26841934436871  1.68419344368712 5.0379746835443  1.22330412203831 4.57708536189549  C 0.762414800389488 4.11619604024667  0.531970139565085 3.56312885426809  0.531970139565085 2.91788380395975  C 0.531970139565085 2.27263875365141  0.762414800389488 1.71957156767283  1.22330412203831 1.25868224602402  C 1.68419344368712 0.797792924375204  2.2372606296657 0.567348263550795  2.88250567997404 0.567348263550795  C 3.52775073028238 0.567348263550795  4.08081791626096 0.797792924375204  4.54170723790977 1.25868224602402  C 5.00259655955859 1.71957156767283  5.23304122038299 2.27263875365141  5.23304122038299 2.91788380395975  Z " fill-rule="nonzero" fill="#000000" stroke="none" transform="matrix(1 0 0 1 133 62 )" />
  </g>
</svg>