<?xml version="1.0" encoding="utf-8"?>
<svg version="1.1" xmlns:xlink="http://www.w3.org/1999/xlink" width="4px" height="8px" xmlns="http://www.w3.org/2000/svg">
  <g transform="matrix(1 0 0 1 -140 -60 )">
    <path d="M 2.1012658227848 2.03789195002896  L 2.10126582278482 0.440142301646397  L 1.5686826066573 0.628112848514935  L 1.5686826066573 2.03789195002896  L 0.414752305047664 2.03789195002896  L 0.414752305047664 2.60180359063457  L 1.56868260665729 2.60180359063457  L 1.56868260665729 6.26722925457103  C 1.56868260665729 6.87813353189377  1.74621034536646 7.30106726234798  2.1012658227848 7.53603044593365  C 2.45632130020316 7.77099362951932  2.98890451633067 7.81798626623646  3.69901547116736 7.67700835608505  L 3.69901547116736 7.16008935219657  C 3.34395999374901 7.20708198891371  3.03328645100796 7.20708198891371  2.81137677762149 7.20708198891371  C 2.58946710423503 7.20708198891371  2.41193936552586 7.11309671547944  2.27879356149397 6.97211880532804  C 2.14564775746209 6.83114089517664  2.1012658227848 6.59617771159097  2.1012658227848 6.26722925457103  L 2.1012658227848 2.60180359063457  L 3.69901547116736 2.60180359063457  L 3.69901547116736 2.03789195002896  L 2.1012658227848 2.03789195002896  Z " fill-rule="nonzero" fill="#000000" stroke="none" transform="matrix(1 0 0 1 140 60 )" />
  </g>
</svg>