<?xml version="1.0" encoding="utf-8"?>
<svg version="1.1" xmlns:xlink="http://www.w3.org/1999/xlink" width="2px" height="4px" xmlns="http://www.w3.org/2000/svg">
  <g transform="matrix(1 0 0 1 -82 -50 )">
    <path d="M 1.0506329113924 1.01894597501448  L 1.05063291139241 0.220071150823199  L 0.78434130332865 0.314056424257468  L 0.78434130332865 1.01894597501448  L 0.207376152523832 1.01894597501448  L 0.207376152523832 1.30090179531728  L 0.784341303328644 1.30090179531728  L 0.784341303328644 3.13361462728551  C 0.784341303328644 3.43906676594688  0.87310517268323 3.65053363117399  1.0506329113924 3.76801522296683  C 1.22816065010158 3.88549681475966  1.49445225816534 3.90899313311823  1.84950773558368 3.83850417804253  L 1.84950773558368 3.58004467609829  C 1.6719799968745 3.60354099445685  1.51664322550398 3.60354099445685  1.40568838881074 3.60354099445685  C 1.29473355211751 3.60354099445685  1.20596968276293 3.55654835773972  1.13939678074699 3.48605940266402  C 1.07282387873105 3.41557044758832  1.0506329113924 3.29808885579548  1.0506329113924 3.13361462728551  L 1.0506329113924 1.30090179531728  L 1.84950773558368 1.30090179531728  L 1.84950773558368 1.01894597501448  L 1.0506329113924 1.01894597501448  Z " fill-rule="nonzero" fill="#000000" stroke="none" transform="matrix(1 0 0 1 82 50 )" />
  </g>
</svg>