<?xml version="1.0" encoding="utf-8"?>
<svg version="1.1" xmlns:xlink="http://www.w3.org/1999/xlink" width="5px" height="6px" xmlns="http://www.w3.org/2000/svg">
  <g transform="matrix(1 0 0 1 -148 -62 )">
    <path d="M 3.99980820866894 0.65952612788056  C 3.63668328858201 0.244725738396627  3.13738652346248 0.0142810775722178  2.50191791331031 0.0142810775722178  C 1.59410561309295 0.0142810775722178  0.958637002940799 0.38299253489127  0.55012146784298 1.16650438169426  L 0.55012146784298 0.106458941901983  L 0.00543408771256602 0.106458941901983  L 0.00543408771256602 5.59104186952289  L 0.55012146784298 5.59104186952289  L 0.55012146784298 2.73352807530023  C 0.55012146784298 2.042194092827  0.731683927886451 1.48912690684843  1.09480884797339 1.12041544952938  C 1.45793376806035 0.751703992210323  1.91183991816902 0.567348263550795  2.45652729829943 0.567348263550795  C 2.95582406341898 0.567348263550795  3.3643395985168 0.705615060045438  3.636683288582 1.02823758519961  C 3.90902697864722 1.35086011035378  4.04519882367982 1.71957156767283  4.04519882367982 2.27263875365141  L 4.04519882367982 5.68321973385265  L 4.58988620381024 5.68321973385265  L 4.58988620381024 2.27263875365141  C 4.58988620381024 1.62739370334307  4.40832374376676 1.07432651736449  3.99980820866894 0.65952612788056  Z " fill-rule="nonzero" fill="#000000" stroke="none" transform="matrix(1 0 0 1 148 62 )" />
  </g>
</svg>