<?xml version="1.0" encoding="utf-8"?>
<svg version="1.1" xmlns:xlink="http://www.w3.org/1999/xlink" width="7px" height="6px" xmlns="http://www.w3.org/2000/svg">
  <g transform="matrix(1 0 0 1 -153 -62 )">
    <path d="M 5.98909985935302 0.152547874066861  L 5.98909985935302 1.39694904251867  C 5.73945147679325 0.982148653034732  5.38994374120956 0.65952612788056  4.94057665260198 0.38299253489127  C 4.49120956399437 0.152547874066861  3.99191279887482 0.0142810775722178  3.44268635724332 0.0142810775722178  C 2.59388185654009 0.0142810775722178  1.84493670886077 0.290814670561508  1.2457805907173 0.843881856540085  C 0.646624472573848 1.39694904251867  0.347046413502099 2.08828302499189  0.347046413502099 2.87179487179487  C 0.347046413502099 3.70139565076274  0.646624472573833 4.34664070107108  1.2457805907173 4.89970788704966  C 1.84493670886076 5.45277507302824  2.59388185654008 5.72930866601753  3.44268635724332 5.72930866601753  C 3.99191279887482 5.72930866601753  4.49120956399437 5.59104186952288  4.94057665260198 5.36059720869847  C 5.38994374120956 5.13015254787407  5.73945147679325 4.8075300227199  5.98909985935302 4.34664070107108  L 5.98909985935302 5.59104186952288  L 6.58825597749647 5.59104186952288  L 6.58825597749647 0.152547874066861  L 5.98909985935302 0.152547874066861  Z M 5.98909985935302 2.91788380395975  C 5.98909985935302 3.56312885426809  5.73945147679325 4.11619604024667  5.2401547116737 4.57708536189549  C 4.74085794655414 5.0379746835443  4.14170182841069 5.26841934436871  3.44268635724332 5.26841934436871  C 2.74367088607595 5.26841934436871  2.14451476793249 5.0379746835443  1.64521800281294 4.57708536189549  C 1.14592123769339 4.11619604024667  0.896272855133617 3.56312885426809  0.896272855133617 2.91788380395975  C 0.896272855133617 2.27263875365141  1.14592123769339 1.71957156767283  1.64521800281294 1.25868224602402  C 2.14451476793249 0.797792924375204  2.74367088607595 0.567348263550795  3.44268635724332 0.567348263550795  C 4.14170182841069 0.567348263550795  4.74085794655414 0.797792924375204  5.2401547116737 1.25868224602402  C 5.73945147679325 1.71957156767283  5.98909985935302 2.27263875365141  5.98909985935302 2.91788380395975  Z " fill-rule="nonzero" fill="#000000" stroke="none" transform="matrix(1 0 0 1 153 62 )" />
  </g>
</svg>