<?xml version="1.0" encoding="utf-8"?>
<svg version="1.1" xmlns:xlink="http://www.w3.org/1999/xlink" width="4px" height="3px" xmlns="http://www.w3.org/2000/svg">
  <g transform="matrix(1 0 0 1 -89 -51 )">
    <path d="M 3.42234277677315 0.0762739370334306  L 3.42234277677315 0.698474521259333  C 3.27968655816757 0.491074326517366  3.07996785211975 0.32976306394028  2.8231866586297 0.191496267445635  C 2.56640546513964 0.0762739370334306  2.28109302792847 0.0071405387861089  1.96724934699618 0.0071405387861089  C 1.4822182037372 0.0071405387861089  1.05424954792044 0.145407335280754  0.71187462326703 0.421940928270042  C 0.369499698613627 0.698474521259333  0.198312236286914 1.04414151249594  0.198312236286914 1.43589743589744  C 0.198312236286914 1.85069782538137  0.369499698613619 2.17332035053554  0.71187462326703 2.44985394352483  C 1.05424954792043 2.72638753651412  1.48221820373719 2.86465433300876  1.96724934699618 2.86465433300876  C 2.28109302792847 2.86465433300876  2.56640546513964 2.79552093476144  2.8231866586297 2.68029860434924  C 3.07996785211975 2.56507627393703  3.27968655816757 2.40376501135995  3.42234277677315 2.17332035053554  L 3.42234277677315 2.79552093476144  L 3.76471770142656 2.79552093476144  L 3.76471770142656 0.0762739370334306  L 3.42234277677315 0.0762739370334306  Z M 3.42234277677315 1.45894190197988  C 3.42234277677315 1.78156442713405  3.27968655816757 2.05809802012334  2.9943741209564 2.28854268094774  C 2.70906168374523 2.51898734177215  2.36668675909182 2.63420967218436  1.96724934699618 2.63420967218436  C 1.56781193490054 2.63420967218436  1.22543701024714 2.51898734177215  0.940124573035965 2.28854268094774  C 0.654812135824792 2.05809802012334  0.51215591721921 1.78156442713405  0.51215591721921 1.45894190197988  C 0.51215591721921 1.13631937682571  0.654812135824792 0.859785783836417  0.940124573035965 0.629341123012009  C 1.22543701024714 0.398896462187602  1.56781193490054 0.283674131775397  1.96724934699618 0.283674131775397  C 2.36668675909182 0.283674131775397  2.70906168374523 0.398896462187602  2.9943741209564 0.629341123012009  C 3.27968655816757 0.859785783836417  3.42234277677315 1.13631937682571  3.42234277677315 1.45894190197988  Z " fill-rule="nonzero" fill="#000000" stroke="none" transform="matrix(1 0 0 1 89 51 )" />
  </g>
</svg>