<?xml version="1.0" encoding="utf-8"?>
<svg version="1.1" xmlns:xlink="http://www.w3.org/1999/xlink" width="14px" height="14px" xmlns="http://www.w3.org/2000/svg">
  <g transform="matrix(1 0 0 1 -386 -740 )">
    <path d="M 1.45833333333333 0.583333333333333  C 2.2575 0.583333333333333  2.905 1.23666666666667  2.905 2.04166666666667  C 2.905 2.84725  2.2575 3.5  1.45833333333333 3.5  C 0.659166666666667 3.5  0.0116666666666669 2.84725  0.0116666666666669 2.04166666666667  C 0.0116666666666669 1.23666666666667  0.659166666666667 0.583333333333333  1.45833333333333 0.583333333333333  Z M 2.91666666666667 14  L 2.91666666666667 4.66666666666667  L 0 4.66666666666667  L 0 14  L 2.91666666666667 14  Z M 7.57283333333333 5.92375  L 7.57283333333333 4.66666666666667  L 4.67483333333333 4.66666666666667  L 4.67483333333333 14  L 7.57341666666667 14  L 7.57341666666667 9.10058333333333  C 7.57341666666667 6.37641666666667  11.0903333333333 6.15358333333333  11.0903333333333 9.10058333333333  L 11.0903333333333 14  L 14 14  L 14 8.09025  C 14 3.49358333333333  8.7955 3.661  7.57283333333333 5.92375  Z " fill-rule="nonzero" fill="#000000" stroke="none" transform="matrix(1 0 0 1 386 740 )" />
  </g>
</svg>