<?xml version="1.0" encoding="utf-8"?>
<svg version="1.1" xmlns:xlink="http://www.w3.org/1999/xlink" width="6px" height="6px" xmlns="http://www.w3.org/2000/svg">
  <g transform="matrix(1 0 0 1 -98 -42 )">
    <path d="M 5.87921940928271 0.333149880755826  L 4.30643459915612 0.333149880755825  L 4.30643459915612 0.854155200880573  C 3.93196202531645 0.411300678774537  3.40770042194092 0.176848284718401  2.73364978902953 0.176848284718401  C 2.03463431786216 0.176848284718401  1.46044303797468 0.463401210787012  0.961146272855125 1.010456796918  C 0.461849507735579 1.55751238304898  0.237165963431778 2.26086956521739  0.237165963431778 3.06842781141075  C 0.237165963431778 3.87598605760411  0.486814345991554 4.55329297376628  0.961146272855125 5.1263988259035  C 1.46044303797468 5.67345441203449  2.03463431786216 5.9600073381031  2.73364978902953 5.9600073381031  C 3.40770042194092 5.9600073381031  3.93196202531645 5.72555494404697  4.30643459915612 5.28270042194093  L 4.30643459915612 5.80370574206568  L 5.87921940928271 5.80370574206568  L 5.87921940928271 0.333149880755826  Z M 4.30643459915612 3.09447807741699  C 4.30643459915612 3.48523206751055  4.18161040787624 3.7978352595854  3.95692686357243 4.05833791964777  C 3.73224331926863 4.29279031370391  3.43266526019691 4.4230416437351  3.05819268635724 4.4230416437351  C 2.68372011251758 4.4230416437351  2.38414205344586 4.29279031370391  2.15945850914206 4.05833791964777  C 1.93477496483826 3.82388552559164  1.80995077355837 3.48523206751055  1.80995077355837 3.09447807741699  C 1.80995077355837 2.67767382131719  1.93477496483826 2.36507062924234  2.15945850914206 2.13061823518621  C 2.38414205344586 1.89616584113007  2.68372011251758 1.76591451109888  3.05819268635724 1.76591451109888  C 3.43266526019691 1.76591451109888  3.73224331926863 1.89616584113007  3.95692686357243 2.13061823518621  C 4.18161040787624 2.36507062924234  4.30643459915612 2.70372408732343  4.30643459915612 3.09447807741699  Z " fill-rule="nonzero" fill="#000000" stroke="none" transform="matrix(1 0 0 1 98 42 )" />
  </g>
</svg>