<?xml version="1.0" encoding="utf-8"?>
<svg version="1.1" xmlns:xlink="http://www.w3.org/1999/xlink" width="2px" height="2px" xmlns="http://www.w3.org/2000/svg">
  <g transform="matrix(1 0 0 1 -71 -40 )">
    <path d="M 1.55321143928739 0.4419440537584  C 1.37568370057821 0.264416315049226  1.1759649945304 0.197843413033287  0.954055321143932 0.197843413033287  C 0.732145647757464 0.197843413033287  0.532426941709641 0.286607282387873  0.354899203000476 0.4419440537584  C 0.199562431629949 0.597280825128926  0.110798562275363 0.796999531176746  0.110798562275363 1.04110017190186  C 0.110798562275363 1.26300984528833  0.199562431629949 1.46272855133615  0.354899203000476 1.64025629004532  C 0.510235974370997 1.79559306141585  0.709954680418819 1.88435693077043  0.954055321143932 1.88435693077043  C 1.1759649945304 1.88435693077043  1.37568370057822 1.79559306141585  1.55321143928739 1.64025629004532  C 1.70854821065791 1.48491951867479  1.7973120800125 1.28520081262697  1.7973120800125 1.04110017190186  C 1.7973120800125 0.819190498515393  1.70854821065791 0.619471792467573  1.55321143928739 0.4419440537584  Z " fill-rule="nonzero" fill="#000000" stroke="none" transform="matrix(1 0 0 1 71 40 )" />
  </g>
</svg>