<?xml version="1.0" encoding="utf-8"?>
<svg version="1.1" xmlns:xlink="http://www.w3.org/1999/xlink" width="3px" height="3px" xmlns="http://www.w3.org/2000/svg">
  <g transform="matrix(1 0 0 1 -87 -51 )">
    <path d="M 2.39988492520137 0.32976306394028  C 2.18200997314921 0.122362869198313  1.88243191407749 0.0071405387861089  1.50115074798619 0.0071405387861089  C 0.956463367855773 0.0071405387861089  0.57518220176448 0.191496267445635  0.330072880705788 0.583252190847128  L 0.330072880705788 0.0532294709509917  L 0.00326045262753961 0.0532294709509917  L 0.00326045262753961 2.79552093476144  L 0.330072880705788 2.79552093476144  L 0.330072880705788 1.36676403765011  C 0.330072880705788 1.0210970464135  0.43901035673187 0.744563453424214  0.656885308784036 0.560207724764688  C 0.874760260836209 0.375851996105161  1.14710395090141 0.283674131775397  1.47391637897966 0.283674131775397  C 1.77349443805139 0.283674131775397  2.01860375911008 0.352807530022719  2.1820099731492 0.514118792599805  C 2.34541618718833 0.675430055176892  2.42711929420789 0.859785783836417  2.42711929420789 1.13631937682571  L 2.42711929420789 2.84160986692632  L 2.75393172228614 2.84160986692632  L 2.75393172228614 1.13631937682571  C 2.75393172228614 0.813696851671535  2.64499424626006 0.537163258682247  2.39988492520137 0.32976306394028  Z " fill-rule="nonzero" fill="#000000" stroke="none" transform="matrix(1 0 0 1 87 51 )" />
  </g>
</svg>