<?xml version="1.0" encoding="utf-8"?>
<svg version="1.1" xmlns:xlink="http://www.w3.org/1999/xlink" width="3px" height="3px" xmlns="http://www.w3.org/2000/svg">
  <g transform="matrix(1 0 0 1 -79 -51 )">
    <path d="M 2.6165206101915 0.0762739370334306  L 2.6165206101915 0.698474521259333  C 2.5012982797793 0.491074326517366  2.33998701720221 0.32976306394028  2.13258682246024 0.191496267445635  C 1.92518662771828 0.0762739370334306  1.69474196689387 0.0071405387861089  1.44125283998702 0.0071405387861089  C 1.04949691658553 0.0071405387861089  0.703829925348915 0.145407335280754  0.427296332359622 0.421940928270042  C 0.150762739370335 0.698474521259333  0.0124959428756881 1.04414151249594  0.0124959428756881 1.43589743589744  C 0.0124959428756881 1.85069782538137  0.150762739370328 2.17332035053554  0.427296332359622 2.44985394352483  C 0.703829925348908 2.72638753651412  1.04949691658553 2.86465433300876  1.44125283998702 2.86465433300876  C 1.69474196689387 2.86465433300876  1.92518662771828 2.79552093476144  2.13258682246024 2.68029860434924  C 2.33998701720221 2.56507627393703  2.5012982797793 2.40376501135995  2.6165206101915 2.17332035053554  L 2.6165206101915 2.79552093476144  L 2.89305420318078 2.79552093476144  L 2.89305420318078 0.0762739370334306  L 2.6165206101915 0.0762739370334306  Z M 2.6165206101915 1.45894190197988  C 2.6165206101915 1.78156442713405  2.5012982797793 2.05809802012334  2.27085361895489 2.28854268094774  C 2.04040895813048 2.51898734177215  1.76387536514119 2.63420967218436  1.44125283998702 2.63420967218436  C 1.11863031483285 2.63420967218436  0.842096721843562 2.51898734177215  0.611652061019153 2.28854268094774  C 0.381207400194744 2.05809802012334  0.265985069782543 1.78156442713405  0.265985069782543 1.45894190197988  C 0.265985069782543 1.13631937682571  0.381207400194744 0.859785783836417  0.611652061019153 0.629341123012009  C 0.842096721843562 0.398896462187602  1.11863031483285 0.283674131775397  1.44125283998702 0.283674131775397  C 1.76387536514119 0.283674131775397  2.04040895813048 0.398896462187602  2.27085361895489 0.629341123012009  C 2.5012982797793 0.859785783836417  2.6165206101915 1.13631937682571  2.6165206101915 1.45894190197988  Z " fill-rule="nonzero" fill="#000000" stroke="none" transform="matrix(1 0 0 1 79 51 )" />
  </g>
</svg>