<?xml version="1.0" encoding="utf-8"?>
<svg version="1.1" xmlns:xlink="http://www.w3.org/1999/xlink" width="12px" height="15px" xmlns="http://www.w3.org/2000/svg">
  <g transform="matrix(1 0 0 1 -104 -41 )">
    <path d="M 8.60654008438819 0.430107526881721  L 8.60654008438819 5.45528787260106  C 7.85759493670886 4.63386416224309  6.80907172995781 4.19899278617123  5.46097046413502 4.19899278617123  C 4.06293952180028 4.19899278617123  2.91455696202532 4.73050224581462  1.91596343178622 5.74520212331564  C 0.917369901547119 6.75990200081666  0.468002812939524 8.06451612903226  0.468002812939524 9.56240642439091  C 0.468002812939524 11.0602967197496  0.96729957805907 12.3165918061794  1.91596343178622 13.3796107254662  C 2.91455696202532 14.3943106029672  4.06293952180028 14.9258200626106  5.46097046413502 14.9258200626106  C 6.80907172995781 14.9258200626106  7.85759493670886 14.4909486865387  8.60654008438819 13.6695249761808  L 8.60654008438819 14.635905811896  L 11.7521097046414 14.635905811896  L 11.7521097046414 0.430107526881721  L 8.60654008438819 0.430107526881721  Z M 8.60654008438819 9.61072546617667  C 8.60654008438819 10.3355110929631  8.35689170182841 10.9153395943923  7.90752461322082 11.3985300122499  C 7.45815752461321 11.8334013883218  6.85900140646976 12.0749965972506  6.11005625879044 12.0749965972506  C 5.36111111111111 12.0749965972506  4.76195499296765 11.8334013883218  4.31258790436006 11.3985300122499  C 3.86322081575246 10.963658636178  3.61357243319269 10.3355110929631  3.61357243319269 9.61072546617667  C 3.61357243319269 8.83762079760447  3.86322081575246 8.25779229617531  4.31258790436006 7.82292092010345  C 4.76195499296766 7.38804954403158  5.36111111111111 7.14645433510277  6.11005625879044 7.14645433510277  C 6.85900140646976 7.14645433510277  7.45815752461322 7.38804954403158  7.90752461322082 7.82292092010345  C 8.35689170182841 8.25779229617531  8.60654008438819 8.88593983939023  8.60654008438819 9.61072546617667  Z " fill-rule="nonzero" fill="#000000" stroke="none" transform="matrix(1 0 0 1 104 41 )" />
  </g>
</svg>