<?xml version="1.0" encoding="utf-8"?>
<svg version="1.1" xmlns:xlink="http://www.w3.org/1999/xlink" width="11px" height="15px" xmlns="http://www.w3.org/2000/svg">
  <g transform="matrix(1 0 0 1 -128 -41 )">
    <path d="M 3.51901791720174 10.1905539676058  L 3.56677673821317 10.1905539676058  L 5.66816486271632 10.1905539676058  C 7.05317067204795 10.1905539676058  8.1993823763224 9.7073635497482  9.1545587965511 8.7893017558187  C 10.1097352167798 7.82292092010345  10.5873234268942 6.7115829590309  10.5873234268942 5.35864978902954  C 10.5873234268942 4.00571661902818  10.1097352167798 2.84605961616987  9.1545587965511 1.87967878045461  C 8.1993823763224 0.913297944739351  7.05317067204795 0.478426568667484  5.66816486271632 0.478426568667484  L 0.319176909435578 0.478426568667484  L 0.319176909435578 14.7325438954675  L 3.51901791720174 14.7325438954675  L 3.51901791720174 10.1905539676058  Z M 3.56677673821317 7.14645433510276  L 3.56677673821317 3.47420715938478  L 5.66816486271632 3.47420715938478  C 6.14575307283067 3.47420715938478  6.5755824619336 3.66748332652783  6.90989420901364 4.00571661902817  C 7.24420595609368 4.34394991152852  7.38748241912798 4.77882128760038  7.38748241912798 5.31033074724377  C 7.38748241912798 5.84184020688717  7.24420595609368 6.27671158295903  6.90989420901364 6.61494487545937  C 6.5755824619336 6.95317816795971  6.1935118938421 7.14645433510276  5.66816486271632 7.14645433510276  L 3.56677673821317 7.14645433510276  Z " fill-rule="nonzero" fill="#000000" stroke="none" transform="matrix(1 0 0 1 128 41 )" />
  </g>
</svg>