<?xml version="1.0" encoding="utf-8"?>
<svg version="1.1" xmlns:xlink="http://www.w3.org/1999/xlink" width="11px" height="11px" xmlns="http://www.w3.org/2000/svg">
  <g transform="matrix(1 0 0 1 -139 -45 )">
    <path d="M 7.80184064086099 10.6401271937871  L 10.8106463645814 10.6401271937871  L 10.8106463645814 0.610774781385677  L 7.80184064086099 0.610774781385677  L 7.80184064086099 1.56595120161438  C 7.08545832568946 0.754051244419983  6.08252308444933 0.324221855317066  4.79303491714056 0.324221855317066  C 3.45578792882038 0.324221855317066  2.35733504555737 0.849568886442854  1.40215862532868 1.85250412768299  C 0.446982205099966 2.85543936892313  0.0171528159970426 4.14492753623188  0.0171528159970426 5.62545098758638  C 0.0171528159970426 7.10597443894087  0.494741026111397 8.34770378523818  1.40215862532868 9.39839784748976  C 2.35733504555737 10.4013330887299  3.45578792882039 10.9266801198557  4.79303491714056 10.9266801198557  C 6.08252308444932 10.9266801198557  7.08545832568946 10.4968507307528  7.80184064086099 9.68495077355837  L 7.80184064086099 10.6401271937871  Z M 7.801840640861 5.67320980859781  C 7.801840640861 6.38959212376934  7.61080535681526 6.96269797590656  7.13321714670091 7.44028618602091  C 6.703387757598 7.87011557512383  6.13028190546078 8.10890968018101  5.41389959028924 8.10890968018101  C 4.69751727511771 8.10890968018101  4.1244114229805 7.87011557512383  3.69458203387759 7.44028618602091  C 3.26475264477466 7.010456796918  3.02595853971748 6.38959212376934  3.02595853971748 5.67320980859781  C 3.02595853971748 4.90906867241485  3.26475264477466 4.33596282027763  3.69458203387759 3.90613343117471  C 4.1244114229805 3.47630404207179  4.69751727511771 3.23750993701462  5.41389959028924 3.23750993701462  C 6.13028190546078 3.23750993701462  6.703387757598 3.47630404207179  7.13321714670091 3.90613343117471  C 7.56304653580383 4.33596282027763  7.801840640861 4.95682749342629  7.801840640861 5.67320980859781  Z " fill-rule="nonzero" fill="#000000" stroke="none" transform="matrix(1 0 0 1 139 45 )" />
  </g>
</svg>