<?xml version="1.0" encoding="utf-8"?>
<svg version="1.1" xmlns:xlink="http://www.w3.org/1999/xlink" width="12px" height="11px" xmlns="http://www.w3.org/2000/svg">
  <g transform="matrix(1 0 0 1 -169 -45 )">
    <path d="M 11.7584388185654 0.61077478138568  L 8.61286919831224 0.610774781385679  L 8.61286919831224 1.56595120161438  C 7.8639240506329 0.754051244419985  6.81540084388185 0.324221855317068  5.46729957805906 0.324221855317068  C 4.06926863572431 0.324221855317068  2.92088607594935 0.849568886442856  1.92229254571025 1.852504127683  C 0.923699015471158 2.85543936892314  0.474331926863556 4.14492753623189  0.474331926863556 5.62545098758638  C 0.474331926863556 7.10597443894087  0.973628691983109 8.34770378523819  1.92229254571025 9.39839784748976  C 2.92088607594935 10.4013330887299  4.06926863572433 10.9266801198557  5.46729957805906 10.9266801198557  C 6.81540084388183 10.9266801198557  7.8639240506329 10.4968507307528  8.61286919831224 9.68495077355837  L 8.61286919831224 10.6401271937871  L 11.7584388185654 10.6401271937871  L 11.7584388185654 0.61077478138568  Z M 8.61286919831224 5.67320980859781  C 8.61286919831224 6.38959212376934  8.36322081575247 6.96269797590656  7.91385372714487 7.44028618602091  C 7.46448663853727 7.87011557512383  6.86533052039381 8.10890968018101  6.11638537271449 8.10890968018101  C 5.36744022503517 8.10890968018101  4.76828410689171 7.87011557512383  4.31891701828411 7.44028618602091  C 3.86954992967652 7.010456796918  3.61990154711674 6.38959212376934  3.61990154711674 5.67320980859781  C 3.61990154711674 4.90906867241485  3.86954992967652 4.33596282027763  4.31891701828411 3.90613343117471  C 4.76828410689171 3.47630404207179  5.36744022503517 3.23750993701462  6.11638537271449 3.23750993701462  C 6.86533052039381 3.23750993701462  7.46448663853727 3.47630404207179  7.91385372714487 3.90613343117471  C 8.36322081575247 4.33596282027763  8.61286919831224 4.95682749342629  8.61286919831224 5.67320980859781  Z " fill-rule="nonzero" fill="#000000" stroke="none" transform="matrix(1 0 0 1 169 45 )" />
  </g>
</svg>