<?xml version="1.0" encoding="utf-8"?>
<svg version="1.1" xmlns:xlink="http://www.w3.org/1999/xlink" width="14px" height="14px" xmlns="http://www.w3.org/2000/svg">
  <g transform="matrix(1 0 0 1 -298 -740 )">
    <path d="M 4.17141666666667 1.302  C 4.90991666666667 1.26875  5.131 1.26175  7 1.26175  C 8.869 1.26175  9.09066666666667 1.26875  9.82916666666667 1.30258333333333  C 11.7261666666667 1.38891666666667  12.61225 2.289  12.6985833333333 4.172  C 12.7324166666667 4.90991666666667  12.7388333333333 5.13158333333333  12.7388333333333 7.00058333333333  C 12.7388333333333 8.87016666666667  12.7318333333333 9.09125  12.6985833333333 9.82916666666667  C 12.6116666666667 11.7104166666667  11.7279166666667 12.61225  9.82916666666667 12.6985833333333  C 9.09066666666667 12.7324166666667  8.87016666666667 12.7394166666667  7 12.7394166666667  C 5.131 12.7394166666667  4.90933333333333 12.7324166666667  4.17141666666667 12.6985833333333  C 2.26975 12.6116666666667  1.38833333333333 11.7075  1.302 9.82858333333333  C 1.26816666666667 9.09066666666667  1.26116666666667 8.86958333333333  1.26116666666667 7  C 1.26116666666667 5.131  1.26875 4.90991666666667  1.302 4.17141666666667  C 1.38891666666667 2.289  2.27266666666667 1.38833333333334  4.17141666666667 1.302  Z M 9.88691666666667 0.042583333333333  C 9.13966666666667 0.00816666666666638  8.90108333333333 0  7 0  C 5.09891666666667 0  4.86091666666667 0.00816666666666667  4.11425 0.042  C 1.57208333333333 0.158666666666667  0.15925 1.56916666666667  0.042583333333333 4.11366666666667  C 0.00816666666666638 4.86091666666667  0 5.09891666666667  0 7  C 0 8.90108333333333  0.00816666666666638 9.13966666666667  0.0419999999999997 9.88633333333333  C 0.158666666666666 12.4285  1.56916666666667 13.8413333333333  4.11366666666667 13.958  C 4.86091666666667 13.9918333333333  5.09891666666667 14  7 14  C 8.90108333333333 14  9.13966666666667 13.9918333333333  9.88633333333333 13.958  C 12.4261666666667 13.8413333333333  13.8425 12.4308333333333  13.9574166666667 9.88633333333333  C 13.9918333333333 9.13966666666667  14 8.90108333333333  14 7  C 14 5.09891666666667  13.9918333333333 4.86091666666667  13.958 4.11425  C 13.8436666666667 1.57441666666667  12.4314166666667 0.15925  9.88691666666667 0.042583333333333  Z M 10.5945 7  C 10.5945 5.01491666666667  8.98508333333333 3.4055  7 3.4055  C 5.01491666666667 3.4055  3.4055 5.01491666666667  3.4055 7  C 3.4055 8.98508333333333  5.01491666666667 10.5950833333333  7 10.5950833333333  C 8.98508333333333 10.5950833333333  10.5945 8.98566666666667  10.5945 7  Z M 9.33333333333333 7  C 9.33333333333333 8.28916666666667  8.28858333333333 9.33333333333333  7 9.33333333333333  C 5.71141666666667 9.33333333333333  4.66666666666667 8.28916666666667  4.66666666666667 7  C 4.66666666666667 5.71141666666667  5.71141666666667 4.66666666666667  7 4.66666666666667  C 8.28858333333333 4.66666666666667  9.33333333333333 5.71141666666667  9.33333333333333 7  Z M 11.57625 3.26375  C 11.57625 2.8  11.2005833333333 2.42375  10.7368333333333 2.42375  C 10.2725 2.42375  9.89625 2.8  9.89625 3.26375  C 9.89625 3.7275  10.2725 4.10375  10.7368333333333 4.10375  C 11.2005833333333 4.10375  11.57625 3.7275  11.57625 3.26375  Z " fill-rule="nonzero" fill="#000000" stroke="none" transform="matrix(1 0 0 1 298 740 )" />
  </g>
</svg>