<?xml version="1.0" encoding="utf-8"?>
<svg version="1.1" xmlns:xlink="http://www.w3.org/1999/xlink" width="16px" height="14px" xmlns="http://www.w3.org/2000/svg">
  <g transform="matrix(1 0 0 1 -341 -740 )">
    <path d="M 8.70263333333333 3.90709803921569  C 10.3955333333333 -1.80016666666667  17.4382 -0.749205882352941  14.4875 5.73715196078431  C 12.9409 9.13843137254902  9.2074 13.7686568627451  6.8476 13.7686568627451  C 4.522 13.7686568627451  4.1857 8.66315196078432  2.91586666666667 5.26513235294118  C 2.29076666666667 3.59285294117647  1.88733333333333 3.97685784313726  0.715666666666666 4.82114705882353  L 0.00126666666666611 3.87254411764706  C 1.71 2.3260931372549  3.42 0.529941176470589  4.4707 0.430191176470589  C 5.65376666666667 0.313490196078432  6.3821 1.14604411764706  6.65443333333333 2.92850490196078  C 7.01416666666667 5.271  7.51703333333333 8.90698529411765  8.39483333333333 8.90698529411765  C 9.07883333333333 8.90698529411765  10.7641333333333 6.02271078431373  10.8509 4.99130882352941  C 11.0048 3.48136764705882  9.77233333333333 3.43573039215686  8.70263333333333 3.90709803921569  Z " fill-rule="nonzero" fill="#000000" stroke="none" transform="matrix(1 0 0 1 341 740 )" />
  </g>
</svg>